<?xml version="1.0" standalone="no"?>
<!DOCTYPE svg PUBLIC "-//W3C//DTD SVG 20010904//EN"
 "http://www.w3.org/TR/2001/REC-SVG-20010904/DTD/svg10.dtd">
<svg version="1.0" xmlns="http://www.w3.org/2000/svg"
 width="260.000000pt" height="260.000000pt" viewBox="0 0 260.000000 260.000000"
 preserveAspectRatio="xMidYMid meet">
<metadata>
Created by potrace 1.11, written by Peter Selinger 2001-2013
</metadata>
<g transform="translate(0.000000,260.000000) scale(0.100000,-0.100000)"
fill="#000000" stroke="none">
<path d="M1226 2323 c-17 -33 -64 -177 -69 -211 -2 -12 -18 -38 -37 -57 -30
-31 -38 -34 -87 -34 -48 1 -56 4 -81 35 -16 19 -34 57 -40 84 -17 74 -68 180
-86 180 -21 0 -20 -26 3 -58 19 -28 64 -152 54 -152 -6 0 47 -72 60 -81 5 -3
-7 -16 -27 -27 -28 -17 -37 -29 -42 -59 -4 -29 -11 -39 -25 -40 -14 -1 -19 5
-19 24 0 23 -2 24 -17 12 -9 -8 -14 -9 -10 -3 6 10 -36 59 -51 59 -4 0 -7 21
-7 47 1 26 -3 44 -7 42 -4 -3 -8 2 -8 10 0 9 -5 16 -11 16 -5 0 -8 -4 -4 -10
3 -5 -7 -3 -21 5 -15 8 -34 27 -41 42 -11 22 -12 23 -9 6 3 -15 -1 -23 -10
-23 -8 0 -13 -6 -12 -12 2 -7 -5 -12 -15 -10 -9 2 -17 -2 -17 -8 0 -5 12 -10
28 -10 16 0 37 -11 52 -27 14 -15 19 -23 11 -18 -11 6 -13 4 -6 -11 4 -10 8
-28 9 -39 0 -11 7 -25 15 -31 8 -6 11 -16 6 -24 -4 -7 -2 -16 6 -21 8 -4 14
-14 14 -20 0 -7 7 -15 15 -19 8 -4 25 -12 37 -18 13 -7 30 -12 39 -12 13 0 14
-3 5 -13 -14 -17 -4 -28 17 -19 14 5 15 3 4 -10 -7 -9 -11 -22 -10 -29 3 -15
-9 -16 -77 -6 -22 3 -41 10 -43 16 -2 6 -8 11 -13 11 -6 0 -7 -4 -4 -10 3 -5
1 -10 -5 -10 -7 0 -9 12 -4 36 7 36 6 37 -20 32 -21 -4 -27 -1 -32 18 -3 13
-10 24 -15 24 -5 0 -14 11 -19 24 -5 13 -18 27 -30 31 -11 3 -18 11 -15 16 9
13 -9 11 -24 -3 -11 -11 -12 -9 -6 10 3 12 3 31 0 43 -6 17 -9 18 -23 7 -13
-11 -15 -10 -9 5 3 9 2 17 -2 17 -5 0 -11 -6 -14 -12 -2 -7 -8 1 -12 17 -10
39 -23 55 -45 55 -13 0 -16 6 -13 25 3 14 -1 31 -11 40 -9 9 -14 20 -12 24 3
4 -4 8 -15 8 -10 1 -19 -2 -19 -7 0 -5 -8 -6 -17 -3 -12 5 -8 -5 13 -32 16
-22 23 -36 17 -31 -19 11 -16 -2 7 -31 11 -14 17 -29 15 -34 -3 -4 5 -20 17
-34 13 -15 25 -36 28 -47 3 -12 14 -26 25 -32 11 -6 29 -17 40 -25 20 -13 19
-13 -3 -8 -12 3 -22 2 -22 -2 0 -11 45 -51 57 -51 6 0 16 -7 24 -16 8 -9 21
-13 35 -10 17 5 28 -1 43 -21 12 -14 19 -29 15 -32 -3 -3 -12 3 -20 14 -8 11
-26 21 -39 22 -30 2 -31 -1 -4 -26 l21 -20 -33 3 c-19 1 -54 -1 -79 -6 -25 -5
-57 -11 -72 -13 -117 -21 -308 -145 -308 -200 0 -13 18 -36 47 -60 42 -35 52
-39 105 -39 46 -1 58 -4 56 -16 -8 -57 42 -82 143 -73 37 3 65 1 73 -6 19 -16
43 -4 50 24 7 28 38 40 66 25 29 -16 25 -34 -17 -77 -25 -24 -31 -35 -18 -30
20 7 20 7 0 -9 -11 -8 -27 -19 -35 -24 -27 -15 -5 -20 24 -5 20 11 27 11 23 2
-21 -50 -21 -51 -4 -44 21 8 22 -6 1 -24 -8 -7 -25 -31 -36 -53 -12 -23 -29
-47 -38 -53 -14 -10 -16 -20 -11 -45 4 -18 7 -43 6 -56 -2 -25 -1 -26 26 -12
30 17 22 -4 -13 -33 -32 -27 -44 -66 -24 -80 8 -6 8 -10 -1 -13 -26 -11 -63
-46 -58 -55 9 -14 25 -11 25 5 0 8 7 17 16 20 23 9 24 8 24 -16 1 -20 2 -20
15 7 7 17 14 23 15 15 1 -8 10 9 20 38 10 30 16 62 13 72 -3 9 4 35 16 57 11
22 20 49 20 59 0 65 11 125 25 139 9 9 16 22 17 28 0 7 4 3 9 -8 7 -17 9 -16
9 10 1 23 4 27 11 15 8 -13 10 -12 11 5 1 11 2 25 2 32 0 7 4 11 9 10 6 -1 12
6 13 17 2 10 8 23 14 29 6 6 11 19 11 29 0 10 4 18 8 18 9 0 -7 -76 -20 -95
-3 -6 -5 -28 -4 -50 2 -22 -1 -47 -5 -57 -6 -11 -4 -18 7 -22 9 -3 14 -15 13
-28 -2 -13 2 -33 9 -45 7 -12 9 -29 6 -37 -3 -9 -1 -16 5 -16 6 0 11 6 11 13
0 9 3 8 9 -2 5 -7 6 -23 4 -35 -3 -15 -2 -17 5 -8 8 11 10 11 14 0 3 -8 -18
-40 -49 -73 -47 -51 -52 -61 -39 -71 13 -9 44 -120 49 -177 1 -11 13 -29 28
-41 24 -21 34 -22 127 -18 l100 4 27 -88 c14 -49 28 -96 31 -106 9 -30 55 -52
104 -49 25 2 61 4 80 5 84 5 95 -3 115 -89 20 -86 27 -103 55 -128 17 -15 35
-25 39 -22 16 9 86 17 176 20 111 3 106 2 103 18 -5 21 64 107 86 108 12 1 35
2 51 4 17 2 59 4 94 6 68 2 84 11 123 68 18 25 18 25 177 36 106 7 130 19 168
78 29 47 27 98 -7 185 -32 83 -32 109 0 154 25 34 29 49 29 106 0 40 -8 90
-20 126 -11 32 -18 65 -15 72 3 7 0 14 -7 17 -6 2 4 22 26 49 36 44 37 47 28
94 -18 93 -67 220 -93 241 -7 5 -56 10 -109 10 -53 0 -101 3 -107 7 -6 4 -24
45 -39 93 -24 75 -33 90 -68 116 -38 27 -44 29 -132 25 l-92 -3 -12 45 c-38
145 -37 144 -77 162 -25 12 -57 17 -100 15 -59 -2 -75 4 -51 19 8 4 7 9 -2 15
-10 7 -11 11 -2 17 7 4 10 26 7 56 -3 37 1 54 16 74 11 14 18 27 15 30 -3 3
-12 -3 -20 -14 -9 -12 -14 -14 -15 -5 0 8 -6 11 -15 7 -9 -3 -18 1 -21 9 -4 8
-10 15 -15 15 -14 0 -11 -26 5 -39 11 -10 12 -19 4 -42 -5 -16 -13 -29 -18
-29 -4 0 -7 -10 -7 -22 1 -30 -33 -108 -47 -108 -14 -1 -66 -46 -66 -58 0 -6
-7 -9 -16 -8 -11 1 -22 -14 -32 -44 -10 -28 -17 -38 -20 -27 -4 19 -31 24 -28
5 0 -7 -2 -13 -7 -13 -4 0 -16 -15 -27 -32 -11 -18 -22 -33 -25 -33 -4 0 -3 5
0 10 3 6 2 10 -4 10 -5 0 -12 -9 -16 -19 -4 -13 -12 -17 -26 -14 -20 6 -21 15
-4 56 6 14 4 16 -11 10 -15 -6 -16 -4 -6 8 6 8 27 32 44 53 18 21 45 52 61 68
30 32 35 58 11 58 -15 0 -15 2 0 25 9 14 14 30 11 35 -3 6 5 10 19 10 14 0 29
6 33 14 4 7 19 19 31 25 13 7 21 15 18 18 -3 4 -1 12 6 20 8 10 8 17 -1 26 -9
9 -14 9 -21 -2 -6 -11 -9 -9 -13 10 -4 21 -4 20 -6 -6 -1 -35 -17 -55 -41 -55
-9 0 -25 -9 -35 -20 -10 -11 -20 -18 -23 -15 -7 7 -52 -61 -52 -79 0 -9 -4
-16 -10 -16 -5 0 -10 -7 -10 -15 0 -8 -5 -15 -11 -15 -6 0 -8 -7 -5 -15 3 -8
9 -22 12 -30 3 -8 1 -15 -5 -15 -6 0 -11 9 -11 20 0 11 -5 20 -11 20 -5 0 -8
-4 -5 -9 3 -4 -1 -17 -9 -27 -13 -17 -14 -15 -8 20 5 33 3 41 -18 57 -13 10
-35 19 -49 19 -25 1 -25 1 10 33 33 31 38 38 46 62 1 6 12 37 24 70 11 33 23
67 25 77 2 9 10 30 19 46 13 26 13 32 1 42 -11 9 -17 6 -29 -17z m-661 -1243
c-3 -5 -12 -10 -18 -10 -7 0 -6 4 3 10 19 12 23 12 15 0z"/>
<path d="M330 2140 c0 -5 5 -10 11 -10 5 0 7 5 4 10 -3 6 -8 10 -11 10 -2 0
-4 -4 -4 -10z"/>
<path d="M610 1914 c0 -8 5 -12 10 -9 6 4 8 11 5 16 -9 14 -15 11 -15 -7z"/>
</g>
</svg>
